<?xml version="1.0" standalone="no"?>
<!DOCTYPE svg PUBLIC "-//W3C//DTD SVG 20010904//EN"
 "http://www.w3.org/TR/2001/REC-SVG-20010904/DTD/svg10.dtd">
<svg version="1.0" xmlns="http://www.w3.org/2000/svg"
 width="1280.000000pt" height="1280.000000pt" viewBox="0 0 1280.000000 1280.000000"
 preserveAspectRatio="xMidYMid meet">
<metadata>
Created by potrace 1.14, written by Peter Selinger 2001-2017
</metadata>
<g transform="translate(0.000000,1280.000000) scale(0.100000,-0.100000)"
fill="#000000" stroke="none">
<path d="M0 6400 l0 -6400 6400 0 6400 0 0 6400 0 6400 -6400 0 -6400 0 0
-6400z m6050 3045 l0 -635 -1680 0 -1680 0 0 -865 0 -865 1555 0 1555 0 0
-635 0 -635 -1555 0 -1555 0 0 -865 0 -865 1690 0 1690 0 0 -635 0 -635 -2460
0 -2460 0 0 3635 0 3635 2450 0 2450 0 0 -635z m5660 -1952 c0 -1702 -4 -2627
-10 -2703 -29 -313 -98 -575 -220 -828 -110 -227 -208 -369 -375 -541 -178
-184 -363 -316 -610 -436 -287 -140 -568 -217 -927 -257 -173 -19 -605 -15
-763 6 -812 110 -1381 466 -1691 1059 -140 270 -221 600 -227 927 l-2 135 761
3 760 2 12 -114 c15 -143 50 -264 110 -380 93 -183 281 -331 487 -385 232 -61
500 -44 691 43 191 88 331 254 408 484 77 232 70 -14 73 2935 l3 2637 760 0
760 0 0 -2587z"/>
</g>
</svg>
